# xmcd
#
# Track frame offsets:
#	150
#	11217
#	36812
#	59090
#	83927
#	111752
#	125817
#	141432
#	156337
#	177317
#	197310
#	209650
#	226957
#	241477
#	257052
#	274647
#	287783
#	301160
#	313705
#	326680
#	340315
#
# Disc length: 4677
#
# Revision: 3
# Processed by: cddbd v1.5.1PL0 Copyright (c) Steve Scherf et al.
# Submitted via: Kscd 1.3.0
# Normalized: r2:TDELIM( - ),TSWAP
#
DISCID=44124315
DTITLE=Jimmy Witherspoon - Big Maceo - Ain't Nobody's Business - Worried Life
DYEAR=1900
DGENRE=
TTITLE0=Jimmy Witherspoon - Good Rockin' Tonight
TTITLE1=Jimmy Witherspoon - When I Been Drinkin'
TTITLE2=Jimmy Witherspoon - Big Fine Girl
TTITLE3=Jimmy Witherspoon - No Rollin' Blues
TTITLE4=Jimmy Witherspoon - Ain't Nobody's Business
TTITLE5=Jimmy Witherspoon - Times Gettin' Tougher Than Tough
TTITLE6=Jimmy Witherspoon - How Long
TTITLE7=Jimmy Witherspoon - Corrine, Corrina
TTITLE8=Jimmy Witherspoon - See See Rider
TTITLE9=Jimmy Witherspoon - Roll 'em Pete
TTITLE10=Jimmy Witherspoon - Everyday
TTITLE11=Jimmy Witherspoon - (I'm Gonna Move To The)  Outskirts Of Town
TTITLE12=Jimmy Witherspoon - Kansas City
TTITLE13=Jimmy Witherspoon - Trouble In Mind
TTITLE14=Jimmy Witherspoon - St Louis Blues
TTITLE15=Big Maceo - Winter Time Blues
TTITLE16=Big Maceo - Big Road Blues
TTITLE17=Big Maceo - Detroit Jump
TTITLE18=Big Maceo - Texas Blues
TTITLE19=Big Maceo - Tuff Luck Blues
TTITLE20=Big Maceo - Have You Heard About It
EXTD=
EXTT0=
EXTT1=
EXTT2=
EXTT3=
EXTT4=
EXTT5=
EXTT6=
EXTT7=
EXTT8=
EXTT9=
EXTT10=
EXTT11=
EXTT12=
EXTT13=
EXTT14=
EXTT15=
EXTT16=
EXTT17=
EXTT18=
EXTT19=
EXTT20=
PLAYORDER=
